MKV files van de DRT omgezet naar AVI met ingebakken NLSubs.

General
Complete name                            : F:\Vuze Downloads\American Gangster (2007) 720p BRRip NL subs DutchReleaseTeam)\American Gangster (2007) 720p BRRip NL subs DutchReleaseTeam)_xvid_003.avi
Format                                   : AVI
Format/Info                              : Audio Video Interleave
Format profile                           : OpenDML
File size                                : 2.41 GiB
Duration                                 : 2h 36mn
Overall bit rate mode                    : Variable
Overall bit rate                         : 2 198 Kbps
Writing application                      : MEncoder r33883
Writing library                          : MPlayer

Video
ID                                       : 0
Format                                   : MPEG-4 Visual
Format profile                           : Simple@L3
Format settings, BVOP                    : No
Format settings, QPel                    : No
Format settings, GMC                     : No warppoints
Format settings, Matrix                  : Default (H.263)
Codec ID                                 : XVID
Codec ID/Hint                            : XviD
Duration                                 : 2h 36mn
Bit rate                                 : 1 999 Kbps
Width                                    : 1 280 pixels
Height                                   : 720 pixels
Display aspect ratio                     : 16:9
Frame rate                               : 23.976 fps
Color space                              : YUV
Chroma subsampling                       : 4:2:0
Bit depth                                : 8 bits
Scan type                                : Progressive
Compression mode                         : Lossy
Bits/(Pixel*Frame)                       : 0.090
Stream size                              : 2.19 GiB (91%)
Writing library                          : XviD 63

Audio
ID                                       : 1
Format                                   : MPEG Audio
Format version                           : Version 1
Format profile                           : Layer 3
Mode                                     : Joint stereo
Mode extension                           : MS Stereo
Codec ID                                 : 55
Codec ID/Hint                            : MP3
Duration                                 : 2h 36mn
Bit rate mode                            : Variable
Bit rate                                 : 188 Kbps
Channel(s)                               : 2 channels
Sampling rate                            : 48.0 KHz
Compression mode                         : Lossy
Stream size                              : 211 MiB (9%)
Alignment                                : Aligned on interleaves
Interleave, duration                     : 24 ms (0.58 video frame)
Interleave, preload duration             : 153 ms
Writing library                          : LAME3.98.4

